# xmcd
#
# Track frame offsets:
#	150
#	12848
#	33105
#	53097
#	72766
#	91293
#	108076
#	131085
#	148217
#	164475
#	183954
#	206184
#	224834
#	246511
#	263692
#	281496
#	302162
#	321122
#
# Disc length: 4431 seconds
#
# Revision: 0
# Processed by: cddbd v1.5.1PL2 Copyright (c) Steve Scherf et al.
# Submitted via: EasyCDDAExtractor 8.1.2.3
#
DISCID=0f114d12
DTITLE=Mic Fury - Au bout du tunnel
DYEAR=2005
DGENRE=Rap
TTITLE0=Au Bout Du Tunnel
TTITLE1=Fatal Fury
TTITLE2=Qui Sème La Misère...
TTITLE3=Spielberg Mc
TTITLE4=Machine De Guerre (Feat. Horse
TTITLE5=A Tombeau Ouvert
TTITLE6=La Mémoire Dans La Peau
TTITLE7=Mon Hiphop A Moi
TTITLE8=J'lève Mon Verre
TTITLE9=Les Racines Du Mal
TTITLE10=Street Zoologie (Feat. Sefyu &
TTITLE11=Mister Gun (Feat. Horseck and Al
TTITLE12=United States of Apocalypse
TTITLE13=Arrète De Graver Mon Flow (Fea
TTITLE14=Viens Dans Mon Harem
TTITLE15=Turbo Boost (Feat. V12 Turbo)
TTITLE16=Au Revoir à Jamais
TTITLE17=Outro
EXTD=
EXTT0=
EXTT1=
EXTT2=
EXTT3=
EXTT4=
EXTT5=
EXTT6=
EXTT7=
EXTT8=
EXTT9=
EXTT10=
EXTT11=
EXTT12=
EXTT13=
EXTT14=
EXTT15=
EXTT16=
EXTT17=
PLAYORDER=
